<svg width="238" height="27" viewBox="0 0 238 27" fill="none" xmlns="http://www.w3.org/2000/svg">
<path d="M15.9107 17.4873L18.6583 22.8531C19.6604 24.8249 20.1776 25.6007 22.5372 25.6007V26.3765H20.9533C16.6542 26.3765 16.1047 25.9562 14.5854 22.6915L10.351 14.1255H9.86609C9.25193 14.1255 8.67009 14.0932 8.12058 14.0609V23.0471C8.12058 25.0188 8.57312 25.6007 11.5793 25.6007V26.3765H1.07388V25.6007C4.08004 25.6007 4.50025 25.0188 4.50025 23.0471V3.84641C4.50025 1.87463 4.08004 1.29279 1.07388 1.29279V0.517004H11.0298C16.8158 0.517004 19.4018 3.00598 19.4018 7.11117C19.4018 11.4426 16.3956 13.3498 12.6137 13.9316C13.9066 14.3195 14.7794 15.0306 15.9107 17.4873ZM8.12058 3.0383V12.8002C8.70242 12.8649 9.31658 12.8972 9.96306 12.8972C13.2601 12.8972 15.6845 11.281 15.6845 7.20814C15.6845 3.68479 13.8743 1.8423 10.7388 1.8423C10.06 1.8423 9.38123 1.93927 8.70242 2.16554C8.2822 2.32717 8.12058 2.65041 8.12058 3.0383ZM33.2674 26.8937C27.1581 26.8937 23.1499 20.9783 23.1499 13.4467C23.1499 5.91517 27.1581 0.0321377 33.1704 0.0321377C39.2797 0.0321377 43.2879 5.97981 43.2879 13.4791C43.2879 21.043 39.312 26.8937 33.2674 26.8937ZM33.9462 25.5037C37.6312 25.5037 39.5706 21.0106 39.5706 16.1943C39.5706 9.37387 37.1463 1.42209 32.4916 1.42209C28.839 1.42209 26.8672 5.94749 26.8672 10.6992C26.8672 17.5842 29.2592 25.5037 33.9462 25.5037ZM56.4859 0.129111L64.1144 23.2087C64.7932 25.1805 65.5043 25.6007 67.6054 25.6007V26.3765H57.7788V25.6007C60.9143 25.6007 60.9466 25.0835 60.3648 23.1764L58.8132 18.1984H50.1503L48.5664 23.2087C47.9522 25.0835 47.9846 25.6007 51.0554 25.6007V26.3765H43.7501V25.6007C45.7865 25.6007 46.4976 25.1805 47.1441 23.2087L54.708 0.129111H56.4859ZM54.4494 4.78381L50.5705 16.9378H58.393L54.5787 4.78381H54.4494ZM76.8295 26.8937C74.8577 26.8937 73.0475 25.9886 71.7546 24.7279C71.2374 24.2107 70.8495 24.2431 70.7202 24.9865L70.4293 26.4734H69.6211L69.6858 16.8085H70.5262C70.7525 21.4955 73.2091 25.536 76.7648 25.536C79.5447 25.536 80.7407 23.3703 80.7407 21.3662C80.7407 18.3924 78.4457 16.4852 75.7951 14.4811C72.5627 12.0245 69.8474 9.98803 69.8474 6.17376C69.8474 2.32717 72.6273 -0.000186248 76.28 -0.000186248C78.1548 -0.000186248 79.4477 0.581652 80.5791 1.64835C81.1286 2.13322 81.5811 2.00392 81.6781 1.29279L81.8397 0.323057H82.6155L83.0034 8.82435H82.1953C81.8721 4.84846 79.9326 1.32511 76.5062 1.32511C74.1142 1.32511 72.8213 3.07063 72.8213 5.07473C72.8213 7.59603 74.6961 9.1476 77.7022 11.4103C81.064 13.8993 83.7146 16.1297 83.7146 20.1055C83.7146 24.1784 80.8054 26.8937 76.8295 26.8937ZM92.5136 1.9716H90.4125C88.0528 1.9716 87.277 2.68273 86.9538 7.14349L86.0164 7.07884L86.4366 1.48673L86.5336 0.517004H104.344L104.409 1.48673L104.829 7.07884L103.924 7.14349C103.569 2.68273 102.825 1.9716 100.433 1.9716H98.332C97.6532 1.9716 97.2653 2.35949 97.2653 3.07063V23.0471C97.2653 25.0188 97.6855 25.6007 100.692 25.6007V26.3765H90.1539V25.6007C93.1924 25.6007 93.6126 25.0188 93.6126 23.0471V3.07063C93.6126 2.35949 93.2247 1.9716 92.5136 1.9716Z" fill="#CA0000"/>
<path d="M112.683 7.34502L115.482 15.8161H115.506L118.354 7.34502H120.582V7.59522C119.438 7.59522 119.331 7.76202 119.331 8.48879V15.7327C119.331 16.4595 119.438 16.6263 120.582 16.6263V16.8765H117.365V16.6263C118.497 16.6263 118.604 16.4595 118.604 15.7327V8.03605H118.568L115.494 17.1148H115.149L112.146 8.15519H112.111V15.7327C112.111 16.4595 112.218 16.6263 113.35 16.6263V16.8765H110.455V16.6263C111.586 16.6263 111.694 16.4595 111.694 15.7327V8.48879C111.694 7.76202 111.586 7.59522 110.455 7.59522V7.34502H112.683ZM125.498 12.6707V15.7327C125.498 16.4595 125.606 16.6263 126.749 16.6263V16.8765H123.533V16.6263C124.664 16.6263 124.772 16.4595 124.772 15.7327V12.6826L122.627 8.36965C122.294 7.70245 122.031 7.59522 121.364 7.59522V7.34502H124.331V7.59522C123.056 7.59522 123.128 7.71436 123.449 8.36965L125.284 12.1107H125.32L127 8.38156C127.298 7.72628 127.369 7.59522 126.225 7.59522V7.34502H128.68V7.59522C128 7.59522 127.75 7.71436 127.452 8.38156L125.498 12.6707Z" fill="white"/>
<path d="M134.122 26.3765V25.6007C137.128 25.6007 137.548 25.0188 137.548 23.0471V3.84641C137.548 1.87463 137.128 1.29279 134.122 1.29279V0.517004H143.625C149.282 0.517004 152.708 2.81203 152.708 7.8223C152.708 12.9295 149.185 15.4508 144.595 15.4832C143.173 15.5155 142.106 15.2569 141.169 14.9013V23.0471C141.169 25.0188 141.621 25.6007 144.757 25.6007V26.3765H134.122ZM143.981 14.0286C147.375 14.0286 149.088 11.4426 149.088 7.8223C149.088 3.81409 146.89 1.8423 143.787 1.8423C142.979 1.8423 142.332 1.9716 141.75 2.19787C141.362 2.35949 141.169 2.65041 141.169 3.07063V13.4791C141.912 13.77 142.817 14.0286 143.981 14.0286ZM165.177 0.517004V1.29279C162.138 1.29279 161.718 1.87463 161.718 3.84641V22.7885C161.718 24.5986 162.106 24.9219 163.722 24.9219H167.633C170.058 24.9219 170.995 23.9521 172.191 18.7479L173.096 18.9742L171.609 25.4714L171.415 26.3765H154.639V25.6007C157.645 25.6007 158.065 25.0188 158.065 23.0471V3.84641C158.065 1.87463 157.645 1.29279 154.639 1.29279V0.517004H165.177ZM186.914 0.129111L194.542 23.2087C195.221 25.1805 195.932 25.6007 198.033 25.6007V26.3765H188.207V25.6007C191.342 25.6007 191.374 25.0835 190.793 23.1764L189.241 18.1984H180.578L178.994 23.2087C178.38 25.0835 178.412 25.6007 181.483 25.6007V26.3765H174.178V25.6007C176.214 25.6007 176.926 25.1805 177.572 23.2087L185.136 0.129111H186.914ZM184.877 4.78381L180.998 16.9378H188.821L185.007 4.78381H184.877ZM202.993 1.9716H200.891C198.532 1.9716 197.756 2.68273 197.433 7.14349L196.495 7.07884L196.916 1.48673L197.013 0.517004H214.823L214.888 1.48673L215.308 7.07884L214.403 7.14349C214.047 2.68273 213.304 1.9716 210.912 1.9716H208.811C208.132 1.9716 207.744 2.35949 207.744 3.07063V23.0471C207.744 25.0188 208.164 25.6007 211.171 25.6007V26.3765H200.633V25.6007C203.671 25.6007 204.092 25.0188 204.092 23.0471V3.07063C204.092 2.35949 203.704 1.9716 202.993 1.9716ZM234.864 0.517004L234.961 1.48673L235.575 7.04652L234.67 7.14349C234.186 2.71506 233.442 1.9716 231.147 1.9716H226.525C225.523 1.9716 225.005 2.52111 225.005 3.49084V12.38H229.014C230.921 12.38 231.47 11.8952 231.47 8.56576H232.214V17.3257H231.47C231.47 14.0286 230.921 13.5437 229.014 13.5437H225.005V23.0794C225.005 24.5986 225.264 24.9219 226.525 24.9219H231.115C233.539 24.9219 234.476 23.9845 235.769 19.0388L236.675 19.2974L235.091 25.4391L234.832 26.3765H217.926V25.6007C220.933 25.6007 221.353 25.0188 221.353 23.0471V3.84641C221.353 1.87463 220.933 1.29279 217.926 1.29279V0.517004H234.864Z" fill="#CA0000"/>
</svg>
