<svg width="238" height="27" viewBox="0 0 238 27" fill="none" xmlns="http://www.w3.org/2000/svg">
<path d="M15.9107 17.4875L18.6583 22.8534C19.6604 24.8251 20.1776 25.6009 22.5372 25.6009V26.3767H20.9533C16.6542 26.3767 16.1047 25.9565 14.5854 22.6917L10.351 14.1258H9.86609C9.25193 14.1258 8.67009 14.0935 8.12058 14.0611V23.0473C8.12058 25.0191 8.57312 25.6009 11.5793 25.6009V26.3767H1.07388V25.6009C4.08004 25.6009 4.50025 25.0191 4.50025 23.0473V3.84665C4.50025 1.87487 4.08004 1.29303 1.07388 1.29303V0.517248H11.0298C16.8158 0.517248 19.4018 3.00622 19.4018 7.11141C19.4018 11.4429 16.3956 13.35 12.6137 13.9318C13.9066 14.3197 14.7794 15.0309 15.9107 17.4875ZM8.12058 3.03854V12.8005C8.70242 12.8651 9.31658 12.8975 9.96306 12.8975C13.2601 12.8975 15.6845 11.2812 15.6845 7.20838C15.6845 3.68503 13.8743 1.84254 10.7388 1.84254C10.06 1.84254 9.38123 1.93952 8.70242 2.16579C8.2822 2.32741 8.12058 2.65065 8.12058 3.03854ZM33.2674 26.8939C27.1581 26.8939 23.1499 20.9785 23.1499 13.447C23.1499 5.91541 27.1581 0.0323818 33.1704 0.0323818C39.2797 0.0323818 43.2879 5.98006 43.2879 13.4793C43.2879 21.0432 39.312 26.8939 33.2674 26.8939ZM33.9462 25.504C37.6312 25.504 39.5706 21.0109 39.5706 16.1945C39.5706 9.37411 37.1463 1.42233 32.4916 1.42233C28.839 1.42233 26.8672 5.94773 26.8672 10.6994C26.8672 17.5845 29.2592 25.504 33.9462 25.504ZM56.4859 0.129355L64.1144 23.2089C64.7932 25.1807 65.5043 25.6009 67.6054 25.6009V26.3767H57.7788V25.6009C60.9143 25.6009 60.9466 25.0837 60.3648 23.1766L58.8132 18.1987H50.1503L48.5664 23.2089C47.9522 25.0837 47.9846 25.6009 51.0554 25.6009V26.3767H43.7501V25.6009C45.7865 25.6009 46.4976 25.1807 47.1441 23.2089L54.708 0.129355H56.4859ZM54.4494 4.78406L50.5705 16.938H58.393L54.5787 4.78406H54.4494ZM76.8295 26.8939C74.8577 26.8939 73.0475 25.9888 71.7546 24.7282C71.2374 24.211 70.8495 24.2433 70.7202 24.9868L70.4293 26.4737H69.6211L69.6858 16.8087H70.5262C70.7525 21.4957 73.2091 25.5363 76.7648 25.5363C79.5447 25.5363 80.7407 23.3705 80.7407 21.3664C80.7407 18.3926 78.4457 16.4855 75.7951 14.4814C72.5627 12.0247 69.8474 9.98827 69.8474 6.17401C69.8474 2.32741 72.6273 5.78927e-05 76.28 5.78927e-05C78.1548 5.78927e-05 79.4477 0.581896 80.5791 1.6486C81.1286 2.13346 81.5811 2.00417 81.6781 1.29303L81.8397 0.323301H82.6155L83.0034 8.8246H82.1953C81.8721 4.84871 79.9326 1.32536 76.5062 1.32536C74.1142 1.32536 72.8213 3.07087 72.8213 5.07498C72.8213 7.59627 74.6961 9.14784 77.7022 11.4105C81.064 13.8995 83.7146 16.1299 83.7146 20.1058C83.7146 24.1787 80.8054 26.8939 76.8295 26.8939ZM92.5136 1.97184H90.4125C88.0528 1.97184 87.277 2.68298 86.9538 7.14373L86.0164 7.07909L86.4366 1.48698L86.5336 0.517248H104.344L104.409 1.48698L104.829 7.07909L103.924 7.14373C103.569 2.68298 102.825 1.97184 100.433 1.97184H98.332C97.6532 1.97184 97.2653 2.35973 97.2653 3.07087V23.0473C97.2653 25.0191 97.6855 25.6009 100.692 25.6009V26.3767H90.1539V25.6009C93.1924 25.6009 93.6126 25.0191 93.6126 23.0473V3.07087C93.6126 2.35973 93.2247 1.97184 92.5136 1.97184Z" fill="#FF5757"/>
<path d="M112.682 7.34526L115.482 15.8163H115.506L118.354 7.34526H120.582V7.59546C119.438 7.59546 119.331 7.76226 119.331 8.48904V15.7329C119.331 16.4597 119.438 16.6265 120.582 16.6265V16.8767H117.365V16.6265C118.497 16.6265 118.604 16.4597 118.604 15.7329V8.03629H118.568L115.494 17.115H115.149L112.146 8.15544H112.111V15.7329C112.111 16.4597 112.218 16.6265 113.35 16.6265V16.8767H110.454V16.6265C111.586 16.6265 111.694 16.4597 111.694 15.7329V8.48904C111.694 7.76226 111.586 7.59546 110.454 7.59546V7.34526H112.682ZM125.498 12.671V15.7329C125.498 16.4597 125.606 16.6265 126.749 16.6265V16.8767H123.532V16.6265C124.664 16.6265 124.772 16.4597 124.772 15.7329V12.6829L122.627 8.36989C122.293 7.70269 122.031 7.59546 121.364 7.59546V7.34526H124.331V7.59546C123.056 7.59546 123.127 7.71461 123.449 8.36989L125.284 12.111H125.32L127 8.38181C127.297 7.72652 127.369 7.59546 126.225 7.59546V7.34526H128.679V7.59546C128 7.59546 127.75 7.71461 127.452 8.38181L125.498 12.671Z" fill="white"/>
<path d="M134.122 26.3767V25.6009C137.128 25.6009 137.548 25.0191 137.548 23.0473V3.84665C137.548 1.87487 137.128 1.29303 134.122 1.29303V0.517248H143.625C149.282 0.517248 152.708 2.81227 152.708 7.82255C152.708 12.9298 149.185 15.4511 144.595 15.4834C143.173 15.5157 142.106 15.2571 141.169 14.9016V23.0473C141.169 25.0191 141.621 25.6009 144.757 25.6009V26.3767H134.122ZM143.981 14.0288C147.375 14.0288 149.088 11.4429 149.088 7.82255C149.088 3.81433 146.89 1.84254 143.787 1.84254C142.979 1.84254 142.332 1.97184 141.75 2.19811C141.363 2.35973 141.169 2.65065 141.169 3.07087V13.4793C141.912 13.7702 142.817 14.0288 143.981 14.0288ZM165.177 0.517248V1.29303C162.138 1.29303 161.718 1.87487 161.718 3.84665V22.7887C161.718 24.5989 162.106 24.9221 163.722 24.9221H167.633C170.058 24.9221 170.995 23.9524 172.191 18.7482L173.096 18.9744L171.609 25.4716L171.415 26.3767H154.639V25.6009C157.645 25.6009 158.065 25.0191 158.065 23.0473V3.84665C158.065 1.87487 157.645 1.29303 154.639 1.29303V0.517248H165.177ZM186.914 0.129355L194.542 23.2089C195.221 25.1807 195.932 25.6009 198.033 25.6009V26.3767H188.207V25.6009C191.342 25.6009 191.375 25.0837 190.793 23.1766L189.241 18.1987H180.578L178.994 23.2089C178.38 25.0837 178.413 25.6009 181.483 25.6009V26.3767H174.178V25.6009C176.214 25.6009 176.926 25.1807 177.572 23.2089L185.136 0.129355H186.914ZM184.877 4.78406L180.998 16.938H188.821L185.007 4.78406H184.877ZM202.993 1.97184H200.892C198.532 1.97184 197.756 2.68298 197.433 7.14373L196.495 7.07909L196.916 1.48698L197.013 0.517248H214.823L214.888 1.48698L215.308 7.07909L214.403 7.14373C214.048 2.68298 213.304 1.97184 210.912 1.97184H208.811C208.132 1.97184 207.744 2.35973 207.744 3.07087V23.0473C207.744 25.0191 208.165 25.6009 211.171 25.6009V26.3767H200.633V25.6009C203.671 25.6009 204.092 25.0191 204.092 23.0473V3.07087C204.092 2.35973 203.704 1.97184 202.993 1.97184ZM234.864 0.517248L234.961 1.48698L235.576 7.04676L234.67 7.14373C234.186 2.7153 233.442 1.97184 231.147 1.97184H226.525C225.523 1.97184 225.005 2.52136 225.005 3.49109V12.3803H229.014C230.921 12.3803 231.47 11.8954 231.47 8.56601H232.214V17.3259H231.47C231.47 14.0288 230.921 13.544 229.014 13.544H225.005V23.0796C225.005 24.5989 225.264 24.9221 226.525 24.9221H231.115C233.539 24.9221 234.477 23.9847 235.769 19.0391L236.675 19.2977L235.091 25.4393L234.832 26.3767H217.926V25.6009C220.933 25.6009 221.353 25.0191 221.353 23.0473V3.84665C221.353 1.87487 220.933 1.29303 217.926 1.29303V0.517248H234.864Z" fill="#FF5757"/>
</svg>
